<svg xmlns="http://www.w3.org/2000/svg" width="640" height="400">
<rect width="640" height="400" fill="white"/>
<text x="320.0" y="24" font-size="15" text-anchor="middle">NEAT complexity over generations</text>
<line x1="50" y1="350" x2="590" y2="350" stroke="black"/>
<line x1="50" y1="50" x2="50" y2="350" stroke="black"/>
<text x="42" y="354.0" font-size="11" text-anchor="end">51</text>
<text x="42" y="54.0" font-size="11" text-anchor="end">124</text>
<text x="590" y="366" font-size="11" text-anchor="middle">generation</text>
<text x="14" y="200.0" font-size="11" text-anchor="middle" transform="rotate(-90 14 200.0)">complexity</text>
<polyline points="50.0,350.0 68.6,349.9 87.2,349.7 105.9,349.0 124.5,348.2 143.1,347.5 161.7,346.2 180.3,343.3 199.0,339.4 217.6,335.0 236.2,329.6 254.8,323.5 273.4,317.2 292.1,309.8 310.7,304.0 329.3,292.9 347.9,284.9 366.6,272.9 385.2,261.6 403.8,244.7 422.4,231.5 441.0,221.0 459.7,210.0 478.3,197.8 496.9,185.0 515.5,173.6 534.1,167.6 552.8,145.4 571.4,130.4 590.0,113.1" fill="none" stroke="#1f77b4" stroke-width="2"/>
<polyline points="50.0,350.0 68.6,341.8 87.2,341.8 105.9,337.7 124.5,333.6 143.1,333.6 161.7,325.3 180.3,317.1 199.0,304.8 217.6,292.5 236.2,292.5 254.8,280.1 273.4,276.0 292.1,267.8 310.7,259.6 329.3,234.9 347.9,226.7 366.6,218.5 385.2,197.9 403.8,193.8 422.4,177.4 441.0,165.1 459.7,156.8 478.3,132.2 496.9,111.6 515.5,103.4 534.1,95.2 552.8,70.5 571.4,70.5 590.0,50.0" fill="none" stroke="#d62728" stroke-dasharray="6 4" stroke-width="2"/>
<line x1="50" y1="20" x2="74" y2="20" stroke="#1f77b4" stroke-width="3"/>
<text x="80" y="24" font-size="12">mean complexity</text>
<line x1="50" y1="36" x2="74" y2="36" stroke="#d62728" stroke-dasharray="6 4" stroke-width="3"/>
<text x="80" y="40" font-size="12">max complexity</text>
</svg>