<svg xmlns="http://www.w3.org/2000/svg" width="640" height="400">
<rect width="640" height="400" fill="white"/>
<text x="320.0" y="24" font-size="15" text-anchor="middle">NEAT complexity over generations</text>
<line x1="50" y1="350" x2="590" y2="350" stroke="black"/>
<line x1="50" y1="50" x2="50" y2="350" stroke="black"/>
<text x="42" y="354.0" font-size="11" text-anchor="end">51</text>
<text x="42" y="54.0" font-size="11" text-anchor="end">117</text>
<text x="590" y="366" font-size="11" text-anchor="middle">generation</text>
<text x="14" y="200.0" font-size="11" text-anchor="middle" transform="rotate(-90 14 200.0)">complexity</text>
<polyline points="50.0,350.0 68.6,349.9 87.2,349.6 105.9,348.7 124.5,348.3 143.1,347.0 161.7,346.4 180.3,344.1 199.0,341.6 217.6,336.6 236.2,330.7 254.8,324.0 273.4,317.9 292.1,309.1 310.7,298.6 329.3,283.9 347.9,271.4 366.6,261.7 385.2,251.6 403.8,237.7 422.4,223.0 441.0,208.5 459.7,197.9 478.3,188.3 496.9,182.8 515.5,166.5 534.1,156.3 552.8,147.4 571.4,134.2 590.0,118.3" fill="none" stroke="#1f77b4" stroke-width="2"/>
<polyline points="50.0,350.0 68.6,340.9 87.2,340.9 105.9,331.8 124.5,331.8 143.1,331.8 161.7,331.8 180.3,327.3 199.0,327.3 217.6,309.1 236.2,304.5 254.8,290.9 273.4,277.3 292.1,268.2 310.7,245.5 329.3,236.4 347.9,204.5 366.6,190.9 385.2,200.0 403.8,186.4 422.4,177.3 441.0,159.1 459.7,131.8 478.3,136.4 496.9,127.3 515.5,118.2 534.1,100.0 552.8,72.7 571.4,54.5 590.0,50.0" fill="none" stroke="#d62728" stroke-dasharray="6 4" stroke-width="2"/>
<line x1="50" y1="20" x2="74" y2="20" stroke="#1f77b4" stroke-width="3"/>
<text x="80" y="24" font-size="12">mean complexity</text>
<line x1="50" y1="36" x2="74" y2="36" stroke="#d62728" stroke-dasharray="6 4" stroke-width="3"/>
<text x="80" y="40" font-size="12">max complexity</text>
</svg>